<?xml version="1.0" encoding="UTF-8" standalone="no"?><!DOCTYPE svg PUBLIC "-//W3C//DTD SVG 1.1//EN" "http://www.w3.org/Graphics/SVG/1.1/DTD/svg11.dtd"><svg width="100%" height="100%" viewBox="0 0 3145 717" version="1.1" xmlns="http://www.w3.org/2000/svg" xmlns:xlink="http://www.w3.org/1999/xlink" xml:space="preserve" xmlns:serif="http://www.serif.com/" style="fill-rule:evenodd;clip-rule:evenodd;stroke-linejoin:round;stroke-miterlimit:2;"><path d="M1813.55,693.872c0,-0 31.1,-158.38 -91.76,-183.63c-122.85,-25.26 -540.403,-43.68 -560.831,180.49c0,-0 275.266,5.91 396.321,3.14c121.06,-2.76 256.27,-0 256.27,-0Z" style="fill:#fff;fill-rule:nonzero;"/><path d="M1503.46,68.192c0,-0 -97.874,-58.44 -145.916,-59.269c-48.043,-0.828 -21.823,168.754 -41.145,218.979" style="fill:#333;fill-rule:nonzero;"/><path d="M1316.4,236.822c-1.064,0.001 -2.147,-0.191 -3.2,-0.597c-4.597,-1.768 -6.889,-6.928 -5.12,-11.524c6.812,-17.708 7.562,-54.726 8.288,-90.524c0.627,-30.886 1.274,-62.824 5.591,-87.265c2.07,-11.718 8.363,-47.429 35.742,-46.906c49.846,0.86 146.253,58.093 150.334,60.529c4.228,2.524 5.609,7.999 3.085,12.227c-2.525,4.229 -8,5.611 -12.228,3.086c-0.959,-0.572 -96.387,-57.231 -141.499,-58.009c-0.054,-0 -0.11,-0.002 -0.164,-0.002c-20.664,-0 -22.03,67.43 -23.03,116.702c-0.791,39.053 -1.539,75.94 -9.474,96.565c-1.363,3.544 -4.743,5.718 -8.325,5.718Z" style="fill:#030404;fill-rule:nonzero;"/><path d="M1443.24,97.432c-0,-0 -86.338,82.095 -96.881,119.4c0,-0 -16.929,-167.484 8.11,-184.094c25.04,-16.61 68.058,34.503 88.771,64.694Z" style="fill:#f58c8c;fill-rule:nonzero;"/><path d="M1373.34,599.372c0,-0 -116.85,-31.33 -127.618,-187.88c-10.768,-156.557 87.802,-182.235 110.995,-225.308c23.193,-43.073 135.845,-206.252 394.286,-81.175c258.43,125.076 275,393.453 183.05,477.113c0,-0 -70.48,72.34 -180.96,75.31" style="fill:#fff;fill-rule:nonzero;"/><path d="M1377.72,263.292c52.557,-44 184.557,-29 185.557,-127c0.308,-30.222 -2.856,-55.588 -10.722,-76.784c-120.735,9.309 -179.772,96.828 -195.844,126.676c-12.088,22.449 -44.648,40.184 -71.536,74.175c28.738,15.331 65.222,25.808 92.545,2.933Z" style="fill:#4d4e4e;fill-rule:nonzero;"/><path d="M1751,105.009c-31.1,-15.048 -60.07,-25.913 -87.04,-33.328c-16.89,34.92 -40.95,93.928 -46.66,156.221c-9.02,98.39 -47.02,129.272 -12.02,188.33c35,59.06 114,134.38 183,102.22c53.59,-24.98 124.68,13.42 188.89,-13.38c30.29,-116.17 -23.72,-302.083 -226.17,-400.063Z" style="fill:#faaf5f;fill-rule:nonzero;"/><path d="M1990.62,396.042c-8.25,-57.038 -31.59,-113.153 -67.49,-162.277c-41.53,-56.832 -98.14,-102.853 -168.25,-136.784c-112.49,-54.44 -211.104,-62.003 -293.114,-22.474c-68.979,33.25 -103.857,90.649 -112.903,107.449c-5.497,10.206 -16.674,20.067 -29.616,31.484c-38.232,33.727 -90.592,79.917 -82.424,198.662c5.75,83.62 41.201,135.52 69.928,164.33c3.956,3.97 7.881,7.59 11.736,10.94c0.738,-0.15 1.498,-0.23 2.269,-0.26c1.196,-3.12 3.373,-5.88 6.216,-7.55c0.706,-0.41 1.424,-0.75 2.147,-1.03c-0.206,-0.96 -0.319,-1.95 -0.319,-2.97c0,-0.95 0.101,-1.88 0.283,-2.79c-31.596,-27.94 -68.703,-78.09 -74.467,-161.9c-7.564,-109.961 40.982,-152.787 76.43,-184.058c14.226,-12.549 26.512,-23.388 33.519,-36.403c18.725,-34.774 125.175,-201.937 382.545,-77.375c179.09,86.674 217.61,228.573 225.86,285.557c10.74,74.159 -6.48,141.959 -44.92,176.929c-0.12,0.12 -0.26,0.25 -0.38,0.37c-0.68,0.7 -69.49,69.79 -174.82,72.63c-4.92,0.13 -8.81,4.23 -8.67,9.15c0.13,4.84 4.09,8.68 8.91,8.68l0.24,-0c110.98,-2.99 181.82,-72.65 186.91,-77.81c42.63,-38.95 61.94,-112.68 50.38,-192.5Z" style="fill:#030404;fill-rule:nonzero;"/><path d="M1753.09,113.352c0,-0 134.91,-55.181 185.6,-23.145c50.7,32.037 16.76,214.22 27.17,252.17" style="fill:#faaf5f;fill-rule:nonzero;"/><path d="M1965.86,351.297c-3.92,-0 -7.51,-2.6 -8.6,-6.56c-3.76,-13.739 -2.46,-41.076 -0.82,-75.685c2.9,-60.722 7.27,-152.487 -22.51,-171.306c-38.4,-24.268 -141.13,8.995 -177.46,23.86c-4.57,1.866 -9.77,-0.319 -11.63,-4.878c-1.87,-4.558 0.32,-9.765 4.87,-11.63c5.68,-2.323 139.78,-56.529 193.75,-22.429c38.56,24.367 34.26,114.672 30.8,187.231c-1.45,30.4 -2.82,59.114 0.2,70.119c1.31,4.75 -1.49,9.656 -6.24,10.959c-0.79,0.216 -1.58,0.319 -2.36,0.319Z" style="fill:#030404;fill-rule:nonzero;"/><path d="M1545.71,407.732c-2.851,12.45 -22.914,31.42 -41.34,27.2c-18.426,-4.22 -28.237,-30.03 -25.387,-42.479c2.851,-12.451 18.535,-12.291 36.961,-8.071c18.426,4.221 32.616,10.9 29.766,23.35Z" style="fill:#030404;fill-rule:nonzero;"/><path d="M1566.98,499.802c-20.535,0.01 -35.528,-6.37 -45.724,-13.23c-8.714,-5.86 -14.896,-12.69 -19.003,-18.28c-8.981,7.68 -18.813,11.62 -29.346,11.75l-0.52,-0c-23.462,-0 -40.789,-19.55 -41.521,-20.39c-3.271,-3.75 -2.883,-9.44 0.867,-12.71c3.743,-3.27 9.42,-2.88 12.694,0.85c0.228,0.25 12.841,14.23 27.956,14.23l0.389,-0c8.449,-0.14 16.596,-4.86 24.216,-14.04c2.004,-2.42 5.118,-3.62 8.226,-3.17c3.105,0.45 5.753,2.49 6.99,5.37c0.881,2 22.884,49.64 93.001,24.08c4.669,-1.7 9.85,0.7 11.55,5.38c1.7,4.67 -0.7,9.84 -5.381,11.55c-17.009,6.2 -31.749,8.61 -44.394,8.61Z" style="fill:#030404;fill-rule:nonzero;"/><path d="M1503.92,462.742c-3.058,-0 -6.039,-1.56 -7.729,-4.37c-7.474,-12.42 0.35,-31.21 1.995,-34.85c2.047,-4.54 7.382,-6.56 11.92,-4.51c4.53,2.05 6.547,7.38 4.509,11.91c-2.798,6.26 -4.667,15.36 -2.982,18.17c2.565,4.26 1.187,9.8 -3.077,12.36c-1.454,0.88 -3.055,1.29 -4.636,1.29Z" style="fill:#030404;fill-rule:nonzero;"/><path d="M1461.77,331.14c0,26.076 -21.139,47.212 -47.214,47.212c-26.076,-0 -47.215,-21.136 -47.215,-47.212c0,-26.075 21.139,-47.214 47.215,-47.214c26.075,-0 47.214,21.139 47.214,47.214Z" style="fill:#030404;fill-rule:nonzero;"/><path d="M1446.49,312.089c0,6.654 -5.395,12.048 -12.049,12.048c-6.654,-0 -12.048,-5.394 -12.048,-12.048c0,-6.654 5.394,-12.048 12.048,-12.048c6.654,-0 12.049,5.394 12.049,12.048Z" style="fill:#fff;fill-rule:nonzero;"/><path d="M1728.34,377.842c0,26.07 -21.14,47.21 -47.22,47.21c-26.07,-0 -47.21,-21.14 -47.21,-47.21c0,-26.081 21.14,-47.219 47.21,-47.219c26.08,-0 47.22,21.138 47.22,47.219Z" style="fill:#030404;fill-rule:nonzero;"/><path d="M1713.05,358.782c0,6.66 -5.39,12.05 -12.05,12.05c-6.65,-0 -12.05,-5.39 -12.05,-12.05c0,-6.65 5.4,-12.045 12.05,-12.045c6.66,-0 12.05,5.395 12.05,12.045Z" style="fill:#fff;fill-rule:nonzero;"/><path d="M1902.27,277.299c-2.49,-2.485 -58.85,-95.602 -118.49,-117.967c-0,-0 64.96,-67.277 115.48,-40.921c50.53,26.357 3.01,158.888 3.01,158.888Z" style="fill:#f58c8c;fill-rule:nonzero;"/><path d="M1368.81,600.212c0,-0 -39.633,-60.22 -46.647,-135.97c-7.014,-75.75 -13.327,-70.139 -23.847,-78.55c-10.521,-8.42 -1.403,-30.164 -44.188,-31.567c0,-0 -31.562,-24.549 -59.618,6.317c-0,-0 -27.354,-4.213 -38.576,29.45c-0,-0 -28.757,11.23 -12.625,72.25c16.132,61.02 7.014,107.31 31.562,186.57c-0,-0 -14.763,16.34 -20.739,43.32" style="fill:#fff;fill-rule:nonzero;"/><path d="M1376.25,597.312c-0.384,-0.58 -38.485,-59.2 -45.216,-131.89c-6.273,-67.75 -12.248,-74.579 -24.098,-82.52c-1.066,-0.71 -2.071,-1.39 -3.058,-2.18c-1.205,-0.96 -2.15,-3.41 -3.246,-6.24c-4.957,-12.83 -12.437,-25.444 -43.461,-27.15c-13.787,-9.291 -41.824,-17.764 -66.225,5.958c-12.583,0.093 -32.39,6.852 -42.313,32.532c-8.962,6.05 -28.381,26.02 -13.954,80.6c6.882,26.02 9.058,49.48 11.363,74.31c2.965,31.93 6.026,64.91 18.921,108.07c-5.014,6.71 -14.423,21.32 -19.238,41.76c1.142,-0.3 2.328,-0.48 3.552,-0.48l7.5,-0c2.514,-0 4.893,0.68 6.971,1.84c5.674,-21.41 16.998,-34.41 17.733,-35.24c2.109,-2.33 2.832,-5.61 1.9,-8.61c-13.512,-43.63 -16.597,-76.86 -19.58,-108.99c-2.375,-25.59 -4.619,-49.76 -11.879,-77.22c-13.083,-49.49 5.79,-60.85 7.375,-61.7c2.618,-0.9 4.207,-2.8 5.088,-5.449c8.441,-25.311 26.799,-23.711 28.762,-23.461c2.953,0.45 5.943,-0.6 7.953,-2.82c21.642,-23.804 44.991,-7.21 47.545,-5.27c1.487,1.16 3.301,1.81 5.183,1.88c24.342,0.79 27.043,7.78 30.169,15.87c1.77,4.58 3.776,9.77 8.74,13.74c1.573,1.26 3.004,2.22 4.267,3.061c5.635,3.779 10.502,7.039 16.27,69.349c7.139,77.08 46.409,137.52 48.079,140.05c2.706,4.12 8.237,5.26 12.351,2.55c4.114,-2.71 5.254,-8.24 2.546,-12.35Z" style="fill:#030404;fill-rule:nonzero;"/><path d="M1269.33,434.472c-0,10.07 5.967,18.23 13.327,18.23c7.36,-0 13.326,-8.16 13.326,-18.23c-0,-10.07 -5.966,-18.24 -13.326,-18.24c-7.36,-0 -13.327,8.17 -13.327,18.24Z" style="fill:#f58c8c;fill-rule:nonzero;"/><path d="M1238.7,403.703c-0,10.069 5.967,18.239 13.327,18.239c7.36,-0 13.326,-8.17 13.326,-18.239c0,-10.071 -5.966,-18.23 -13.326,-18.23c-7.36,-0 -13.327,8.159 -13.327,18.23Z" style="fill:#f58c8c;fill-rule:nonzero;"/><path d="M1191.71,403.703c0,10.069 5.967,18.239 13.327,18.239c7.36,-0 13.326,-8.17 13.326,-18.239c-0,-10.071 -5.966,-18.23 -13.326,-18.23c-7.36,-0 -13.327,8.159 -13.327,18.23Z" style="fill:#f58c8c;fill-rule:nonzero;"/><path d="M1160.96,434.472c0,10.07 5.967,18.23 13.327,18.23c7.36,-0 13.326,-8.16 13.326,-18.23c-0,-10.07 -5.966,-18.24 -13.326,-18.24c-7.36,-0 -13.327,8.17 -13.327,18.24Z" style="fill:#f58c8c;fill-rule:nonzero;"/><path d="M1187.61,475.502c-0,17.62 18.842,21.39 42.085,21.39c23.243,-0 42.085,-3.77 42.085,-21.39c0,-17.63 -18.842,-31.91 -42.085,-31.91c-23.243,-0 -42.085,14.28 -42.085,31.91Z" style="fill:#f58c8c;fill-rule:nonzero;"/><path d="M3122.87,716.752l-3101.19,-0c-11.98,-0 -21.687,-6.91 -21.687,-15.44c0,-8.531 9.707,-15.44 21.687,-15.44l3101.19,-0c11.982,-0 21.687,6.909 21.687,15.44c-0,8.53 -9.705,15.44 -21.687,15.44Z" style="fill:#191919;fill-rule:nonzero;"/><path d="M1797.22,687.832l-12.18,5.08c0,-0 -41.53,27.68 -68.67,-5.54c-27.13,-33.23 0.56,-106.32 73.65,-112.41c73.1,-6.09 115.18,22.95 121.83,111.53" style="fill:#fff;fill-rule:nonzero;"/><path d="M1750.23,712.622c-14.03,-0 -28.8,-4.97 -40.76,-19.61c-14.02,-17.17 -16.16,-43.33 -5.57,-68.26c14.2,-33.47 46.12,-55.41 85.38,-58.68c40.57,-3.37 70.72,3.9 92.22,22.24c22.95,19.59 35.79,51.48 39.24,97.51c0.37,4.91 -3.31,9.19 -8.22,9.56c-4.95,0.36 -9.19,-3.32 -9.56,-8.22c-3.08,-41.05 -13.89,-68.94 -33.04,-85.28c-17.7,-15.1 -43.6,-21 -79.16,-18.04c-32.54,2.72 -58.87,20.61 -70.45,47.88c-7.99,18.82 -6.85,37.98 2.97,50.01c21.77,26.65 55.39,4.71 56.81,3.76c0.48,-0.32 0.99,-0.59 1.52,-0.81l12.18,-5.08c4.54,-1.9 9.77,0.25 11.66,4.8c1.9,4.54 -0.25,9.76 -4.8,11.66l-11.42,4.76c-8.95,5.77 -23.53,11.8 -39,11.8Z" style="fill:#030404;fill-rule:nonzero;"/><path d="M1756.24,661.342c-0,-0 -2.77,45.41 35.44,44.3c38.21,-1.1 38.77,-31.56 39.32,-36.54" style="fill:#fff;fill-rule:nonzero;"/><path d="M1790.29,714.582c-12,-0 -21.85,-3.89 -29.3,-11.58c-15.09,-15.58 -13.71,-41.12 -13.65,-42.2c0.3,-4.91 4.49,-8.66 9.45,-8.36c4.91,0.3 8.64,4.52 8.36,9.42c-0.02,0.36 -0.88,18.95 8.7,28.77c4.21,4.33 9.98,6.33 17.57,6.1c25.34,-0.73 29.6,-16 30.6,-27.42c0.04,-0.48 0.08,-0.88 0.12,-1.2c0.54,-4.89 4.94,-8.42 9.84,-7.88c4.9,0.55 8.43,4.95 7.88,9.85l-0.07,0.78c-3.23,36.91 -31.36,43.22 -47.85,43.7c-0.55,0.01 -1.1,0.02 -1.65,0.02Z" style="fill:#030404;fill-rule:nonzero;"/><path d="M1879.08,666.382c0,-0 -1.29,42.03 -43.3,37.05c-32.65,-3.87 -23.92,-48.68 -23.92,-48.68" style="fill:#fff;fill-rule:nonzero;"/><path d="M1842.52,712.762c-2.51,-0 -5.11,-0.16 -7.79,-0.48c-10.26,-1.21 -18.67,-5.95 -24.31,-13.69c-12.41,-17.01 -7.87,-42.68 -7.31,-45.55c0.94,-4.83 5.63,-7.99 10.46,-7.05c4.83,0.95 7.99,5.63 7.05,10.46c-1.09,5.7 -2.45,22.55 4.23,31.66c2.76,3.77 6.56,5.82 11.98,6.46c9.79,1.16 17.54,-0.61 23.02,-5.29c9.61,-8.19 10.32,-23.07 10.32,-23.22c0.2,-4.9 4.38,-8.73 9.23,-8.58c4.9,0.18 8.75,4.26 8.6,9.17c-0.03,0.92 -0.88,22.68 -16.43,36.08c-7.74,6.67 -17.49,10.03 -29.05,10.03Z" style="fill:#030404;fill-rule:nonzero;"/></svg>