<?xml version="1.0" encoding="UTF-8" standalone="no"?><!DOCTYPE svg PUBLIC "-//W3C//DTD SVG 1.1//EN" "http://www.w3.org/Graphics/SVG/1.1/DTD/svg11.dtd"><svg width="100%" height="100%" viewBox="0 0 1619 1450" version="1.1" xmlns="http://www.w3.org/2000/svg" xmlns:xlink="http://www.w3.org/1999/xlink" xml:space="preserve" xmlns:serif="http://www.serif.com/" style="fill-rule:evenodd;clip-rule:evenodd;stroke-linejoin:round;stroke-miterlimit:2;"><path d="M708.422,68.206c-0,-0 -97.764,-58.375 -145.753,-59.202c-47.989,-0.828 -21.797,168.564 -41.098,218.733" style="fill:#4d4e4e;fill-rule:nonzero;"/><path d="M521.569,236.739c-1.075,0.001 -2.167,-0.193 -3.23,-0.603c-4.639,-1.784 -6.953,-6.992 -5.168,-11.63c6.799,-17.674 7.549,-54.641 8.274,-90.391c0.625,-30.856 1.272,-62.762 5.586,-87.182c2.057,-11.647 8.29,-46.933 35.255,-46.933c0.179,-0 0.358,0.002 0.539,0.005c49.815,0.858 146.135,58.04 150.211,60.474c4.267,2.548 5.661,8.072 3.113,12.34c-2.548,4.268 -8.074,5.663 -12.34,3.114c-0.958,-0.571 -96.258,-57.154 -141.295,-57.931c-0.05,-0 -0.101,-0.001 -0.151,-0.001c-7.926,-0 -13.848,10.785 -17.607,32.063c-4.07,23.048 -4.703,54.245 -5.315,84.416c-0.791,39.017 -1.539,75.871 -9.47,96.488c-1.376,3.577 -4.787,5.771 -8.402,5.771Z" style="fill:#030404;fill-rule:nonzero;"/><path d="M648.271,97.413c-0,-0 -86.241,82.003 -96.771,119.266c0,-0 -16.911,-167.296 8.1,-183.887c25.012,-16.592 67.982,34.464 88.671,64.621Z" style="fill:#f4bebe;fill-rule:nonzero;"/><path d="M593.283,589.006c0,-0 -131.556,-21.512 -142.312,-177.889c-10.756,-156.378 87.704,-182.027 110.871,-225.051c23.167,-43.025 135.692,-206.021 393.838,-81.085c258.15,124.937 274.7,393.012 182.86,476.579" style="fill:#fff;fill-rule:nonzero;"/><path d="M955.68,104.981c-51.06,-24.714 -54.18,-54.26 -113.18,34.788c-30.33,45.781 -144.712,248.037 -33,262.456c83.24,10.744 227.68,139.42 367.34,118.128c39.73,-114.296 -9.51,-312.941 -221.16,-415.372Z" style="fill:#faaf5f;fill-rule:nonzero;"/><path d="M723.177,288.648c4.5,-63.297 54.595,-170.983 24.262,-228.151c-113.855,13.202 -169.994,96.592 -185.597,125.569c-17.77,33.001 -94.805,75.703 -106.935,155.179c28.983,46.465 75.617,80.188 126.593,66.524c97,-26 136.354,-44.242 141.677,-119.121Z" style="fill:#4d4e4e;fill-rule:nonzero;"/><path d="M593.293,598.008c-0.483,-0 -0.971,-0.039 -1.462,-0.12c-1.43,-0.233 -35.412,-6.021 -70.968,-31.909c-20.901,-15.219 -38.031,-34.261 -50.914,-56.599c-16.003,-27.746 -25.409,-60.599 -27.956,-97.646c-3.604,-52.383 4.255,-95.299 24.025,-131.199c16.975,-30.824 39.909,-51.056 58.337,-67.313c12.921,-11.399 24.081,-21.243 29.562,-31.423c9.04,-16.788 43.89,-74.143 112.819,-107.368c36.902,-17.789 77.964,-26.052 122.068,-24.533c52.645,1.802 110.106,17.609 170.796,46.982c70.05,33.899 126.6,79.878 168.09,136.658c35.87,49.082 59.19,105.146 67.44,162.134c11.56,79.879 -7.8,153.659 -50.54,192.545c-3.67,3.345 -9.37,3.077 -12.71,-0.6c-3.35,-3.676 -3.08,-9.368 0.6,-12.713c38.37,-34.919 55.56,-102.608 44.84,-176.654c-8.24,-56.907 -46.71,-198.61 -225.56,-285.168c-107.2,-51.881 -200.463,-59.431 -277.208,-22.437c-64.046,30.872 -96.397,84.107 -104.786,99.688c-7.008,13.014 -19.286,23.845 -33.503,36.387c-35.393,31.223 -83.865,73.983 -76.313,183.78c4.247,61.75 28.091,109.008 70.869,140.46c32.146,23.635 63.619,29.115 63.933,29.168c4.895,0.819 8.212,5.449 7.401,10.346c-0.728,4.406 -4.536,7.534 -8.86,7.534Z" style="fill:#030404;fill-rule:nonzero;"/><path d="M957.77,113.315c0,-0 134.76,-55.119 185.4,-23.118c50.64,32 16.74,213.979 27.14,251.887" style="fill:#faaf5f;fill-rule:nonzero;"/><path d="M1170.35,351.086c-3.97,0.022 -7.62,-2.608 -8.72,-6.621c-3.77,-13.738 -2.47,-41.049 -0.82,-75.627c2.89,-60.634 7.25,-152.265 -22.45,-171.033c-38.33,-24.221 -139.46,8.278 -175.19,22.845c-4.6,1.877 -9.85,-0.333 -11.73,-4.937c-1.88,-4.603 0.33,-9.855 4.94,-11.732c1.38,-0.562 34.27,-13.895 73.99,-23.474c54.9,-13.238 94.47,-12.538 117.61,2.082c38.56,24.369 34.26,114.602 30.81,187.105c-1.45,30.358 -2.81,59.032 0.2,70.009c1.31,4.794 -1.51,9.746 -6.3,11.061c-0.78,0.214 -1.57,0.318 -2.34,0.322Z" style="fill:#030404;fill-rule:nonzero;"/><path d="M750.626,407.367c-2.847,12.436 -22.889,31.383 -41.294,27.169c-18.406,-4.214 -28.206,-29.994 -25.358,-42.43c2.847,-12.436 18.514,-12.277 36.919,-8.063c18.406,4.214 32.58,10.888 29.733,23.324Z" style="fill:#030404;fill-rule:nonzero;"/><path d="M771.867,499.337c-20.512,0.001 -35.488,-6.363 -45.673,-13.218c-8.704,-5.859 -14.88,-12.676 -18.982,-18.26c-8.971,7.667 -18.792,11.606 -29.313,11.735c-0.173,0.002 -0.346,0.003 -0.52,0.003c-23.435,-0 -40.743,-19.529 -41.473,-20.367c-3.268,-3.745 -2.88,-9.43 0.865,-12.698c3.74,-3.262 9.41,-2.882 12.68,0.845c0.228,0.255 12.827,14.22 27.925,14.22c0.13,-0 0.259,-0.001 0.389,-0.003c8.439,-0.134 16.577,-4.854 24.188,-14.027c2.002,-2.413 5.112,-3.61 8.217,-3.16c3.102,0.449 5.747,2.48 6.982,5.362c0.881,1.992 22.859,49.584 92.898,24.048c4.67,-1.698 9.83,0.703 11.54,5.373c1.7,4.67 -0.71,9.836 -5.38,11.539c-16.987,6.195 -31.716,8.607 -44.343,8.608Z" style="fill:#030404;fill-rule:nonzero;"/><path d="M708.888,462.315c-3.055,0.001 -6.033,-1.555 -7.721,-4.362c-7.465,-12.413 0.35,-31.183 1.993,-34.819c2.045,-4.531 7.374,-6.546 11.906,-4.499c4.526,2.044 6.54,7.367 4.504,11.893c-2.794,6.259 -4.661,15.349 -2.978,18.147c2.562,4.26 1.185,9.79 -3.074,12.352c-1.452,0.873 -3.051,1.288 -4.63,1.288Z" style="fill:#030404;fill-rule:nonzero;"/><path d="M666.784,330.86c-0,26.046 -21.115,47.161 -47.162,47.161c-26.046,-0 -47.161,-21.115 -47.161,-47.161c-0,-26.047 21.115,-47.162 47.161,-47.162c26.047,-0 47.162,21.115 47.162,47.162Z" style="fill:#030404;fill-rule:nonzero;"/><path d="M651.514,311.83c-0,6.646 -5.388,12.034 -12.034,12.034c-6.647,0 -12.035,-5.388 -12.035,-12.034c0,-6.647 5.388,-12.035 12.035,-12.035c6.646,-0 12.034,5.388 12.034,12.035Z" style="fill:#fff;fill-rule:nonzero;"/><path d="M921.21,416.644c-2.43,-0 -4.85,-0.976 -6.62,-2.904c-12.09,-13.133 -58.521,-20.645 -84.95,-22.294c-3.62,-0.226 -6.75,-2.598 -7.94,-6.018c-1.19,-3.42 -0.22,-7.223 2.47,-9.649c1.69,-1.522 42.05,-37.294 103.41,-39.022c5,-0.158 9.11,3.774 9.25,8.742c0.14,4.968 -3.78,9.11 -8.75,9.25c-31.35,0.884 -56.77,11.907 -72.86,21.241c24.1,3.299 58.76,10.516 72.61,25.559c3.37,3.657 3.13,9.35 -0.52,12.717c-1.73,1.592 -3.92,2.378 -6.1,2.378Z" style="fill:#030404;fill-rule:nonzero;"/><path d="M1106.78,277.079c-2.48,-2.482 -58.78,-95.495 -118.35,-117.835c0,0 64.88,-67.202 115.35,-40.875c50.48,26.327 3,158.71 3,158.71Z" style="fill:#f4bebe;fill-rule:nonzero;"/><path d="M996.92,588.189c13.81,-37.177 6.53,-63.842 6.53,-63.842c-0,-0 -46.85,3.486 -51.05,-51.7c-4.21,-55.185 99.7,-133.945 187.4,-50.118c52.54,50.223 52.99,96.392 46.35,165.36" style="fill:#fff;fill-rule:nonzero;"/><path d="M996.92,597.692c-1.1,0 -2.22,-0.192 -3.31,-0.597c-4.92,-1.828 -7.43,-7.296 -5.6,-12.215c8.59,-23.121 8.34,-41.872 7.34,-51.355c-5.37,-0.606 -12.58,-2.133 -20.04,-5.81c-13.39,-6.592 -29.87,-21.371 -32.38,-54.346c-2.39,-31.29 23.67,-67.149 61.95,-85.267c21.53,-10.189 44.96,-13.829 67.77,-10.519c26.5,3.841 51.29,16.652 73.71,38.078c56.16,53.68 55.96,103.404 49.25,173.138c-0.5,5.223 -5.16,9.054 -10.37,8.546c-5.22,-0.503 -9.05,-5.144 -8.54,-10.367c6.36,-66.116 6.61,-109.714 -43.47,-157.583c-51.17,-48.906 -101.12,-33.159 -120.22,-24.119c-30.94,14.639 -52.92,43.292 -51.14,66.65c1.45,18.987 8.58,31.918 21.21,38.431c9.8,5.057 19.63,4.518 19.73,4.513c4.53,-0.359 8.61,2.59 9.81,6.976c0.33,1.209 7.91,30.066 -6.8,69.653c-1.42,3.827 -5.05,6.193 -8.9,6.193Z" style="fill:#030404;fill-rule:nonzero;"/><path d="M1028.38,506.339c0,-0 -0.9,13.651 -24.93,18.008" style="fill:#fff;fill-rule:nonzero;"/><path d="M1003.44,533.085c-4.14,-0 -7.82,-2.959 -8.58,-7.179c-0.87,-4.748 2.29,-9.295 7.03,-10.156c16.26,-2.947 17.76,-10.122 17.82,-10.425c-0.06,0.28 -0.05,0.439 -0.05,0.439l17.44,1.15c-0.06,0.836 -1.7,20.52 -32.09,26.03c-0.53,0.095 -1.05,0.141 -1.57,0.141Z" style="fill:#030404;fill-rule:nonzero;"/><path d="M1004.65,480.49c0,-0 1.81,43.857 38.44,43.857c36.64,-0 43.25,-25.85 43.25,-25.85" style="fill:#fff;fill-rule:nonzero;"/><path d="M1043.09,533.084c-18.38,-0 -32.9,-9.597 -40.9,-27.022c-5.68,-12.387 -6.24,-24.696 -6.27,-25.214c-0.19,-4.821 3.55,-8.89 8.38,-9.087c4.8,-0.213 8.87,3.536 9.08,8.346c0.07,1.485 2.01,35.503 29.71,35.503c28.95,-0 34.59,-18.595 34.82,-19.387l-0.03,0.111l16.93,4.327c-0.34,1.323 -8.78,32.423 -51.72,32.423Z" style="fill:#030404;fill-rule:nonzero;"/><path d="M1073.13,480.49c0,-0 -11.11,38.048 25.82,36.886c36.94,-1.161 35.44,-36.886 35.44,-36.886" style="fill:#fff;fill-rule:nonzero;"/><path d="M1097.3,526.139c-12.44,0 -21.79,-3.935 -27.82,-11.713c-10.84,-14.005 -5.4,-34.136 -4.74,-36.386c1.35,-4.632 6.2,-7.289 10.84,-5.936c4.62,1.349 7.28,6.186 5.94,10.811c-1.07,3.792 -2.83,14.903 1.8,20.842c2.72,3.479 7.89,5.124 15.36,4.887c8.69,-0.273 15.36,-2.85 19.82,-7.659c7.45,-8.019 7.17,-20.01 7.16,-20.128c-0.2,-4.821 3.55,-8.893 8.37,-9.096c4.8,-0.21 8.89,3.541 9.09,8.362c0.04,0.782 0.66,19.326 -11.82,32.756c-7.76,8.354 -18.55,12.805 -32.07,13.23c-0.65,0.02 -1.29,0.03 -1.93,0.03Z" style="fill:#030404;fill-rule:nonzero;"/><path d="M1609.5,1318c0,67.47 -54.69,122.16 -122.16,122.16l-1355.68,-0c-67.468,-0 -122.161,-54.69 -122.161,-122.16l0,-606.207c0,-67.468 54.693,-122.161 122.161,-122.161l1355.68,-0c67.47,-0 122.16,54.693 122.16,122.161l0,606.207Z" style="fill:#fbda97;fill-rule:nonzero;"/><path d="M131.661,599.131c-62.121,-0 -112.661,50.539 -112.661,112.661l0,606.207c0,62.12 50.54,112.66 112.661,112.66l1355.68,-0c62.12,-0 112.66,-50.54 112.66,-112.66l-0,-606.207c-0,-62.122 -50.54,-112.661 -112.66,-112.661l-1355.68,-0Zm1355.68,850.528l-1355.68,-0c-72.598,-0 -131.661,-59.06 -131.661,-131.66l-0,-606.207c-0,-72.598 59.063,-131.661 131.661,-131.661l1355.68,-0c72.6,-0 131.66,59.063 131.66,131.661l-0,606.207c-0,72.6 -59.06,131.66 -131.66,131.66Z" style="fill:#030404;fill-rule:nonzero;"/><path d="M1556.41,1276.85c0,58.31 -51.06,105.58 -114.05,105.58l-1265.72,-0c-62.99,-0 -114.054,-47.27 -114.054,-105.58l0,-523.91c0,-58.31 51.064,-105.579 114.054,-105.579l1265.72,-0c62.99,-0 114.05,47.269 114.05,105.579l0,523.91Z" style="fill:#fbda97;fill-rule:nonzero;"/><path d="M284.775,656.86l-56.178,-0c-5.247,-0 -9.5,-4.254 -9.5,-9.5c-0,-5.247 4.253,-9.5 9.5,-9.5l56.178,-0c5.246,-0 9.5,4.253 9.5,9.5c-0,5.246 -4.254,9.5 -9.5,9.5Zm112.356,-0l-56.178,-0c-5.247,-0 -9.5,-4.254 -9.5,-9.5c0,-5.247 4.253,-9.5 9.5,-9.5l56.178,-0c5.247,-0 9.5,4.253 9.5,9.5c-0,5.246 -4.253,9.5 -9.5,9.5Zm112.356,-0l-56.177,-0c-5.247,-0 -9.5,-4.254 -9.5,-9.5c-0,-5.247 4.253,-9.5 9.5,-9.5l56.177,-0c5.247,-0 9.5,4.253 9.5,9.5c-0,5.246 -4.253,9.5 -9.5,9.5Zm112.357,-0l-56.179,-0c-5.246,-0 -9.5,-4.254 -9.5,-9.5c-0,-5.247 4.254,-9.5 9.5,-9.5l56.179,-0c5.246,-0 9.5,4.253 9.5,9.5c-0,5.246 -4.254,9.5 -9.5,9.5Zm112.356,-0l-56.178,-0c-5.247,-0 -9.5,-4.254 -9.5,-9.5c-0,-5.247 4.253,-9.5 9.5,-9.5l56.178,-0c5.247,-0 9.5,4.253 9.5,9.5c0,5.246 -4.253,9.5 -9.5,9.5Zm112.36,-0l-56.182,-0c-5.246,-0 -9.5,-4.254 -9.5,-9.5c-0,-5.247 4.254,-9.5 9.5,-9.5l56.182,-0c5.24,-0 9.5,4.253 9.5,9.5c0,5.246 -4.26,9.5 -9.5,9.5Zm112.35,-0l-56.18,-0c-5.24,-0 -9.5,-4.254 -9.5,-9.5c-0,-5.247 4.26,-9.5 9.5,-9.5l56.18,-0c5.25,-0 9.5,4.253 9.5,9.5c0,5.246 -4.25,9.5 -9.5,9.5Zm112.36,-0l-56.18,-0c-5.25,-0 -9.5,-4.254 -9.5,-9.5c-0,-5.247 4.25,-9.5 9.5,-9.5l56.18,-0c5.25,-0 9.5,4.253 9.5,9.5c0,5.246 -4.25,9.5 -9.5,9.5Zm112.36,-0l-56.18,-0c-5.25,-0 -9.5,-4.254 -9.5,-9.5c-0,-5.247 4.25,-9.5 9.5,-9.5l56.18,-0c5.24,-0 9.5,4.253 9.5,9.5c0,5.246 -4.26,9.5 -9.5,9.5Zm112.35,-0l-56.18,-0c-5.24,-0 -9.5,-4.254 -9.5,-9.5c0,-5.247 4.26,-9.5 9.5,-9.5l56.18,-0c5.25,-0 9.5,4.253 9.5,9.5c-0,5.246 -4.25,9.5 -9.5,9.5Zm112.36,-0l-56.18,-0c-5.25,-0 -9.5,-4.254 -9.5,-9.5c0,-5.247 4.25,-9.5 9.5,-9.5l56.18,-0c5.24,-0 9.5,4.253 9.5,9.5c-0,5.246 -4.26,9.5 -9.5,9.5Zm-1289.63,14.622c-3.36,-0 -6.616,-1.787 -8.343,-4.943c-2.518,-4.603 -0.827,-10.375 3.776,-12.893c17.531,-9.59 37.573,-15.022 57.96,-15.71c5.242,-0.156 9.638,3.931 9.815,9.175c0.176,5.243 -3.931,9.638 -9.175,9.814c-17.433,0.588 -34.544,5.218 -49.482,13.389c-1.447,0.792 -3.01,1.168 -4.551,1.168Zm1396.59,9.793c-2.03,0 -4.07,-0.645 -5.8,-1.977c-13.46,-10.383 -29.65,-17.513 -46.8,-20.622c-5.16,-0.935 -8.59,-5.878 -7.66,-11.041c0.94,-5.162 5.88,-8.595 11.04,-7.654c20.14,3.647 39.16,12.04 55.03,24.27c4.15,3.204 4.92,9.169 1.72,13.325c-1.87,2.427 -4.69,3.699 -7.53,3.699Zm-1452.71,81.284c-5.247,-0 -9.5,-4.25 -9.5,-9.5l0,-0.12c0,-20.48 5.846,-40.585 16.906,-58.15c2.796,-4.44 8.663,-5.773 13.102,-2.977c4.44,2.796 5.773,8.661 2.977,13.101c-9.149,14.53 -13.985,31.136 -13.985,48.026l0,0.12c0,5.25 -4.254,9.5 -9.5,9.5Zm1493.82,17.94c-5.24,-0 -9.5,-4.25 -9.5,-9.499l0,-18.061c0,-11.56 -2.2,-22.86 -6.56,-33.585c-1.98,-4.861 0.36,-10.402 5.22,-12.377c4.86,-1.977 10.4,0.364 12.38,5.225c5.29,13.007 7.96,26.717 7.96,40.737l0,18.061c0,5.249 -4.25,9.499 -9.5,9.499Zm-1493.82,94.42c-5.247,0 -9.5,-4.25 -9.5,-9.5l0,-56.18c0,-5.25 4.253,-9.5 9.5,-9.5c5.246,-0 9.5,4.25 9.5,9.5l0,56.18c0,5.25 -4.254,9.5 -9.5,9.5Zm1493.82,17.94c-5.24,0 -9.5,-4.26 -9.5,-9.5l0,-56.18c0,-5.25 4.26,-9.5 9.5,-9.5c5.25,-0 9.5,4.25 9.5,9.5l0,56.18c0,5.24 -4.25,9.5 -9.5,9.5Zm-1493.82,94.41c-5.247,-0 -9.5,-4.25 -9.5,-9.5l0,-56.17c0,-5.25 4.253,-9.5 9.5,-9.5c5.246,-0 9.5,4.25 9.5,9.5l0,56.17c0,5.25 -4.254,9.5 -9.5,9.5Zm1493.82,17.94c-5.24,-0 -9.5,-4.25 -9.5,-9.5l0,-56.18c0,-5.24 4.26,-9.5 9.5,-9.5c5.25,-0 9.5,4.26 9.5,9.5l0,56.18c0,5.25 -4.25,9.5 -9.5,9.5Zm-1493.82,94.42c-5.247,-0 -9.5,-4.25 -9.5,-9.5l0,-56.18c0,-5.24 4.253,-9.5 9.5,-9.5c5.246,-0 9.5,4.26 9.5,9.5l0,56.18c0,5.25 -4.254,9.5 -9.5,9.5Zm1493.82,17.94c-5.24,-0 -9.5,-4.25 -9.5,-9.5l0,-56.18c0,-5.25 4.26,-9.5 9.5,-9.5c5.25,-0 9.5,4.25 9.5,9.5l0,56.18c0,5.25 -4.25,9.5 -9.5,9.5Zm-1493.82,94.42c-5.247,-0 -9.5,-4.26 -9.5,-9.5l0,-56.18c0,-5.25 4.253,-9.5 9.5,-9.5c5.246,-0 9.5,4.25 9.5,9.5l0,56.18c0,5.24 -4.254,9.5 -9.5,9.5Zm1493.82,17.94c-5.24,-0 -9.5,-4.26 -9.5,-9.5l0,-56.18c0,-5.25 4.26,-9.5 9.5,-9.5c5.25,-0 9.5,4.25 9.5,9.5l0,56.18c0,5.24 -4.25,9.5 -9.5,9.5Zm-1486.6,93.47c-3.755,-0 -7.312,-2.24 -8.808,-5.94c-5.251,-12.97 -7.913,-26.63 -7.913,-40.61l0,-18.18c0,-5.25 4.253,-9.5 9.5,-9.5c5.246,-0 9.5,4.25 9.5,9.5l0,18.18c0,11.53 2.196,22.79 6.524,33.48c1.969,4.86 -0.377,10.4 -5.24,12.37c-1.168,0.48 -2.375,0.7 -3.563,0.7Zm1471.08,16.14c-1.73,-0 -3.49,-0.47 -5.06,-1.46c-4.44,-2.8 -5.76,-8.67 -2.96,-13.11c9.19,-14.55 14.04,-31.19 14.04,-48.12l0,-0.25c0,-5.24 4.26,-9.5 9.5,-9.5c5.25,-0 9.5,4.26 9.5,9.5l0,0.25c0,20.52 -5.87,40.67 -16.98,58.26c-1.8,2.87 -4.89,4.43 -8.04,4.43Zm-1386.39,50.4c-0.565,-0 -1.138,-0.05 -1.714,-0.16c-20.131,-3.66 -39.148,-12.08 -54.996,-24.33c-4.152,-3.2 -4.916,-9.17 -1.707,-13.32c3.208,-4.15 9.174,-4.92 13.325,-1.71c13.454,10.4 29.632,17.55 46.784,20.67c5.163,0.94 8.584,5.89 7.643,11.05c-0.835,4.59 -4.833,7.8 -9.335,7.8Zm1291.95,1.92c-5.1,-0 -9.32,-4.05 -9.49,-9.19c-0.17,-5.24 3.94,-9.63 9.19,-9.8c17.43,-0.57 34.55,-5.18 49.49,-13.34c4.61,-2.52 10.38,-0.82 12.89,3.79c2.52,4.6 0.82,10.37 -3.79,12.89c-17.54,9.57 -37.58,14.98 -57.97,15.65l-0.32,-0Zm-1179.73,0.07l-56.178,-0c-5.246,-0 -9.5,-4.25 -9.5,-9.5c-0,-5.25 4.254,-9.5 9.5,-9.5l56.178,-0c5.246,-0 9.5,4.25 9.5,9.5c0,5.25 -4.254,9.5 -9.5,9.5Zm112.356,-0l-56.179,-0c-5.246,-0 -9.499,-4.25 -9.499,-9.5c0,-5.25 4.253,-9.5 9.499,-9.5l56.179,-0c5.247,-0 9.5,4.25 9.5,9.5c0,5.25 -4.253,9.5 -9.5,9.5Zm112.357,-0l-56.179,-0c-5.246,-0 -9.5,-4.25 -9.5,-9.5c-0,-5.25 4.254,-9.5 9.5,-9.5l56.179,-0c5.246,-0 9.5,4.25 9.5,9.5c0,5.25 -4.254,9.5 -9.5,9.5Zm112.356,-0l-56.178,-0c-5.247,-0 -9.5,-4.25 -9.5,-9.5c-0,-5.25 4.253,-9.5 9.5,-9.5l56.178,-0c5.247,-0 9.5,4.25 9.5,9.5c-0,5.25 -4.253,9.5 -9.5,9.5Zm112.357,-0l-56.179,-0c-5.246,-0 -9.5,-4.25 -9.5,-9.5c0,-5.25 4.254,-9.5 9.5,-9.5l56.179,-0c5.246,-0 9.5,4.25 9.5,9.5c0,5.25 -4.254,9.5 -9.5,9.5Zm112.358,-0l-56.18,-0c-5.247,-0 -9.5,-4.25 -9.5,-9.5c0,-5.25 4.253,-9.5 9.5,-9.5l56.18,-0c5.25,-0 9.5,4.25 9.5,9.5c-0,5.25 -4.25,9.5 -9.5,9.5Zm112.35,-0l-56.17,-0c-5.25,-0 -9.5,-4.25 -9.5,-9.5c0,-5.25 4.25,-9.5 9.5,-9.5l56.17,-0c5.25,-0 9.5,4.25 9.5,9.5c-0,5.25 -4.25,9.5 -9.5,9.5Zm112.36,-0l-56.18,-0c-5.24,-0 -9.5,-4.25 -9.5,-9.5c0,-5.25 4.26,-9.5 9.5,-9.5l56.18,-0c5.25,-0 9.5,4.25 9.5,9.5c-0,5.25 -4.25,9.5 -9.5,9.5Zm112.36,-0l-56.18,-0c-5.25,-0 -9.5,-4.25 -9.5,-9.5c0,-5.25 4.25,-9.5 9.5,-9.5l56.18,-0c5.24,-0 9.5,4.25 9.5,9.5c-0,5.25 -4.26,9.5 -9.5,9.5Zm112.35,-0l-56.17,-0c-5.25,-0 -9.5,-4.25 -9.5,-9.5c0,-5.25 4.25,-9.5 9.5,-9.5l56.17,-0c5.25,-0 9.5,4.25 9.5,9.5c0,5.25 -4.25,9.5 -9.5,9.5Zm112.36,-0l-56.18,-0c-5.25,-0 -9.5,-4.25 -9.5,-9.5c-0,-5.25 4.25,-9.5 9.5,-9.5l56.18,-0c5.25,-0 9.5,4.25 9.5,9.5c0,5.25 -4.25,9.5 -9.5,9.5Z" style="fill:#030404;fill-rule:nonzero;"/><path d="M510.659,583.881l12.501,5.212c-0,0 42.617,28.411 70.46,-5.683c27.844,-34.093 -0.568,-109.099 -75.574,-115.349c-75.005,-6.251 -118.19,23.549 -125.01,114.444" style="fill:#fff;fill-rule:nonzero;"/><path d="M558.868,609.131c-15.84,0.001 -30.766,-6.182 -39.923,-12.087l-11.734,-4.893c-4.566,-1.904 -6.725,-7.149 -4.821,-11.717c1.903,-4.567 7.149,-6.725 11.717,-4.822l12.501,5.212c0.532,0.221 1.042,0.494 1.522,0.815c1.449,0.954 36.261,23.397 58.551,-3.895c10.122,-12.395 11.3,-32.135 3.073,-51.515c-11.903,-28.044 -38.988,-46.451 -72.452,-49.239c-36.551,-3.051 -63.166,3.022 -81.367,18.553c-19.691,16.801 -30.801,45.465 -33.964,87.633c-0.371,4.933 -4.678,8.638 -9.605,8.264c-4.934,-0.371 -8.634,-4.671 -8.264,-9.606c3.54,-47.175 16.69,-79.861 40.202,-99.923c22.021,-18.791 52.926,-26.239 94.486,-22.779c40.213,3.351 72.908,25.817 87.458,60.095c10.834,25.523 8.654,52.289 -5.689,69.85c-12.226,14.972 -27.334,20.052 -41.691,20.054Z" style="fill:#030404;fill-rule:nonzero;"/><path d="M552.708,556.704c0,-0 2.841,46.594 -36.367,45.458c-39.207,-1.137 -39.775,-32.389 -40.343,-37.503" style="fill:#fff;fill-rule:nonzero;"/><path d="M517.765,611.142c-0.558,-0 -1.117,-0.008 -1.683,-0.025c-16.85,-0.487 -45.611,-6.94 -48.915,-44.663c-0.028,-0.32 -0.05,-0.592 -0.074,-0.806c-0.546,-4.917 2.998,-9.347 7.916,-9.892c4.91,-0.552 9.347,2.998 9.893,7.915c0.036,0.323 0.073,0.733 0.116,1.22c1.032,11.793 5.43,27.558 31.583,28.316c7.9,0.207 13.859,-1.852 18.224,-6.361c9.834,-10.152 8.952,-29.406 8.94,-29.597c-0.301,-4.939 3.459,-9.187 8.398,-9.489c4.918,-0.278 9.186,3.458 9.487,8.398c0.068,1.104 1.473,27.228 -13.953,43.156c-7.607,7.853 -17.672,11.828 -29.932,11.828Z" style="fill:#030404;fill-rule:nonzero;"/><path d="M426.658,561.868c0,-0 1.327,43.135 44.436,38.021c33.498,-3.974 24.539,-49.954 24.539,-49.954" style="fill:#fff;fill-rule:nonzero;"/><path d="M464.177,609.274c-11.814,-0 -21.774,-3.433 -29.687,-10.249c-15.895,-13.689 -16.758,-35.942 -16.786,-36.882c-0.153,-4.947 3.733,-9.079 8.679,-9.231c4.948,-0.176 9.058,3.716 9.23,8.644c0.016,0.36 0.801,15.558 10.651,23.962c5.664,4.832 13.662,6.667 23.775,5.474c5.536,-0.658 9.6,-2.851 12.425,-6.706c6.894,-9.412 5.493,-26.765 4.372,-32.657c-0.924,-4.853 2.253,-9.549 7.104,-10.482c4.86,-0.939 9.542,2.225 10.487,7.074c0.572,2.937 5.225,29.196 -7.463,46.592c-5.761,7.899 -14.341,12.73 -24.815,13.972c-2.743,0.325 -5.402,0.489 -7.972,0.489Z" style="fill:#030404;fill-rule:nonzero;"/><g transform="matrix(0.148073,0,0,0.148073,11.0241,70.7302)"><text x="2993.79px" y="5444px" style="font-family:'Quicksand-Bold', 'Quicksand';font-weight:700;font-size:1298.32px;">Curr<tspan x="5668.34px " y="5444px ">e</tspan>nt</text><text x="2599.75px" y="6742.32px" style="font-family:'Quicksand-Bold', 'Quicksand';font-weight:700;font-size:1298.32px;">T<tspan x="3334.6px 3869.51px " y="6742.32px 6742.32px ">re</tspan>nding</text><text x="2405px" y="8040.65px" style="font-family:'Quicksand-Bold', 'Quicksand';font-weight:700;font-size:1298.32px;">Hashtag<tspan x="7702.16px " y="8040.65px ">s</tspan></text></g></svg>